<svg xmlns="http://www.w3.org/2000/svg" width="64" height="64" viewBox="0 0 64 64" role="img" aria-label="Escape room marker - selected">
  <defs>
    <linearGradient id="gradBodySel" x1="0" y1="0" x2="0" y2="1">
      <stop offset="0%"  stop-color="#A78BFA"/>
      <stop offset="100%" stop-color="#6D28D9"/>
    </linearGradient>
    <filter id="halo" x="-50%" y="-40%" width="200%" height="200%">
      <feDropShadow dx="0" dy="0" stdDeviation="5" flood-color="#A78BFA" flood-opacity="1"/>
      <feDropShadow dx="0" dy="1.8" stdDeviation="1.8" flood-color="#2D1B69" flood-opacity="0.5"/>
    </filter>
  </defs>

  <!-- Chincheta con halo -->
  <path filter="url(#halo)" fill="url(#gradBodySel)" stroke="#A78BFA" stroke-width="1.5"
        d="M32 4c-10.8 0-19.6 8.6-19.6 19.3 0 12.3 12.8 24.1 18.6 30.4a2.2 2.2 0 0 0 3 0C39.8 47.4 51.6 35.6 51.6 23.3 51.6 12.6 42.8 4 32 4z"/>

  <!-- Cerradura brillante -->
  <g transform="translate(32,24)">
    <rect x="-8" y="1.5" width="16" height="11" rx="2.4" fill="#FFFFFF"/>
    <path d="M-5 -0.4v-3.3c0-3.1 2.5-5.7 5.5-5.7s5.5 2.6 5.5 5.7v3.3h-3.3v-3c0-1.4-1-2.4-2.2-2.6-1.4-0.2-2.8 1-2.8 2.6v3H-5z"
          fill="#FFFFFF"/>
    <circle cx="0" cy="6.5" r="1.6" fill="#6D28D9"/>
    <rect x="-0.6" y="6.5" width="1.2" height="3.2" rx="0.6" fill="#6D28D9"/>
  </g>

  <!-- Brillo superior más marcado -->
  <path d="M32 6.6c-9.2 0-16.5 6.9-16.5 15.5 0 2 .4 3.9 1.2 5.7 8-5.7 19.6-7.1 29.3-6.9.5-1.4.7-2.9.7-4.5C46.7 13.5 39.4 6.6 32 6.6z"
        fill="#FFFFFF" opacity="0.18"/>
</svg>
