<svg xmlns="http://www.w3.org/2000/svg" width="60" height="60" viewBox="0 0 60 60" role="img" aria-label="User location marker - escape room">
  <defs>
    <linearGradient id="gradTeal" x1="0" y1="0" x2="0" y2="1">
      <stop offset="0%" stop-color="#14B8A6"/>
      <stop offset="100%" stop-color="#0D9488"/>
    </linearGradient>
    <filter id="drop" x="-30%" y="-30%" width="160%" height="160%">
      <feDropShadow dx="0" dy="1.5" stdDeviation="1.8" flood-color="#065F46" flood-opacity="0.4"/>
    </filter>
  </defs>

  <!-- Base circular -->
  <circle cx="30" cy="30" r="18" fill="url(#gradTeal)" stroke="#065F46" stroke-width="1.6" filter="url(#drop)"/>

  <!-- Brillo superior -->
  <path d="M30 12.5c-9.5 0-17.2 7.7-17.2 17.2 0 2.1.4 4.1 1.1 6 8.1-5.8 19.3-7.2 27.7-7 .4-1.4.6-2.8.6-4.2 0-9.5-7.7-17-17.2-17z"
        fill="#FFFFFF" opacity="0.10"/>

  <!-- Llave más icónica -->
  <g transform="translate(30,30)">
    <!-- Cuerpo -->
    <rect x="-8" y="-1.4" width="16" height="2.8" rx="1.4" fill="#FFFFFF"/>
    <!-- Dientes -->
    <rect x="4.8" y="1" width="2.8" height="2.8" rx="0.6" fill="#FFFFFF"/>
    <rect x="8" y="1" width="2.8" height="2.8" rx="0.6" fill="#FFFFFF"/>
    <!-- Cabeza -->
    <circle cx="-9" cy="0" r="5.6" fill="#FFFFFF"/>
    <circle cx="-9" cy="0" r="2.6" fill="#0D9488"/>
  </g>

  <!-- Anillo interior decorativo -->
  <circle cx="30" cy="30" r="12.5" fill="none" stroke="#FFFFFF" stroke-opacity="0.35" stroke-width="2"/>
</svg>
