<svg xmlns="http://www.w3.org/2000/svg" width="64" height="64" viewBox="0 0 64 64" role="img" aria-label="Escape room marker">
  <defs>
    <!-- Sombras sutiles para dar profundidad -->
    <linearGradient id="gBody" x1="0" x2="0" y1="0" y2="1">
      <stop offset="0%"  stop-color="#0ACC56"/>
      <stop offset="100%" stop-color="#00B74A"/>
    </linearGradient>
    <filter id="soft" x="-20%" y="-20%" width="140%" height="140%">
      <feDropShadow dx="0" dy="1.2" stdDeviation="1.2" flood-color="#009B3D" flood-opacity="0.35"/>
    </filter>
  </defs>

  <!-- Chincheta (cuerpo) -->
  <path filter="url(#soft)" fill="url(#gBody)" stroke="#009B3D" stroke-width="1"
        d="M32 4c-10.5 0-19 8.3-19 18.6 0 11.8 12.3 23.1 18 29.2a2 2 0 0 0 3 0c5.7-6.1 18-17.4 18-29.2C52 12.3 42.5 4 32 4z"/>

  <!-- Zona “visual” clara para que el badge/numero destaque -->
  <!-- Si agregas un badge, usa el mismo #00B74A para que se funda con el cuerpo -->
  <circle cx="32" cy="24" r="12.5" fill="#ffffff" opacity="0.9"/>

  <!-- Cerradura minimal (centrada) -->
  <!-- Medidas reducidas para dejar “aire” alrededor para el número -->
  <g transform="translate(32,24)">
    <!-- cuerpo de la cerradura -->
    <rect x="-7.5" y="0.5" width="15" height="10.5" rx="2" fill="#00B74A"/>
    <!-- aro -->
    <path d="M-4.8 -0.2v-2.8c0-2.7 2.2-4.9 4.8-4.9s4.8 2.2 4.8 4.9v2.8h-3.1v-2.6c0-1-0.7-1.9-1.7-2.1-1.3-0.2-2.3 0.8-2.3 2.1v2.6h-2.5z" fill="#00B74A"/>
    <!-- orificio -->
    <circle cx="0" cy="5.8" r="1.5" fill="#ffffff"/>
    <rect x="-0.6" y="5.8" width="1.2" height="3.2" fill="#ffffff" rx="0.6"/>
  </g>

  <!-- Brillo muy sutil arriba -->
  <path d="M32 6.5c-8.8 0-15.8 6.6-15.8 14.6 0 1.9.4 3.7 1.1 5.4 7.8-5.4 18.8-6.7 28.2-6.6.4-1.3.6-2.7.6-4.1C46.1 13.1 39.1 6.5 32 6.5z"
        fill="#ffffff" opacity="0.12"/>
</svg>
