<svg xmlns="http://www.w3.org/2000/svg" width="64" height="64" viewBox="0 0 64 64" role="img" aria-label="Escape room marker - normal">
  <defs>
    <linearGradient id="gradBody" x1="0" y1="0" x2="0" y2="1">
      <stop offset="0%"  stop-color="#8B5CF6"/>
      <stop offset="100%" stop-color="#6D28D9"/>
    </linearGradient>
    <filter id="softShadow" x="-30%" y="-20%" width="160%" height="160%">
      <feDropShadow dx="0" dy="1.6" stdDeviation="1.6" flood-color="#2D1B69" flood-opacity="0.45"/>
    </filter>
  </defs>

  <!-- Chincheta -->
  <path filter="url(#softShadow)" fill="url(#gradBody)" stroke="#2D1B69" stroke-width="1"
        d="M32 4c-10.8 0-19.6 8.6-19.6 19.3 0 12.3 12.8 24.1 18.6 30.4a2.2 2.2 0 0 0 3 0C39.8 47.4 51.6 35.6 51.6 23.3 51.6 12.6 42.8 4 32 4z"/>

  <!-- Cerradura centrada -->
  <g transform="translate(32,24)">
    <!-- cuerpo -->
    <rect x="-8" y="1.5" width="16" height="11" rx="2.4" fill="#FFFFFF"/>
    <!-- aro -->
    <path d="M-5 -0.4v-3.3c0-3.1 2.5-5.7 5.5-5.7s5.5 2.6 5.5 5.7v3.3h-3.3v-3c0-1.4-1-2.4-2.2-2.6-1.4-0.2-2.8 1-2.8 2.6v3H-5z"
          fill="#FFFFFF"/>
    <!-- orificio -->
    <circle cx="0" cy="6.5" r="1.6" fill="#6D28D9"/>
    <rect x="-0.6" y="6.5" width="1.2" height="3.2" rx="0.6" fill="#6D28D9"/>
  </g>

  <!-- Brillo superior -->
  <path d="M32 6.8c-9.2 0-16.5 6.9-16.5 15.5 0 2 .4 3.9 1.2 5.7 8-5.7 19.6-7.1 29.3-6.9.5-1.4.7-2.9.7-4.5C46.7 13.7 39.4 6.8 32 6.8z"
        fill="#FFFFFF" opacity="0.12"/>
</svg>
